{
  "accessors": [
    {
      "bufferView": 2,
      "componentType": 5126,
      "count": 65532,
      "max": [
        79.521995544433594,
        42.83056640625,
        134.6446533203125
      ],
      "min": [
        -79.48004150390625,
        -63.316020965576172,
        -100.29416656494141
      ],
      "type": "VEC3"
    },
    {
      "bufferView": 2,
      "byteOffset": 786384,
      "componentType": 5126,
      "count": 65532,
      "max": [
        0.99999183416366577,
        0.99092459678649902,
        0.98643898963928223
      ],
      "min": [
        -0.99985963106155396,
        -0.99999105930328369,
        -0.99953556060791016
      ],
      "type": "VEC3"
    },
    {
      "bufferView": 3,
      "componentType": 5126,
      "count": 65532,
      "max": [
        0.76071137189865112,
        0.99981659650802612,
        0.9708857536315918,
        1
      ],
      "min": [
        -0.99999147653579712,
        -0.99993157386779785,
        -0.99610185623168945,
        -1
      ],
      "type": "VEC4"
    },
    {
      "bufferView": 1,
      "componentType": 5126,
      "count": 65532,
      "max": [
        0.93636000156402588,
        0.96852999925613403
      ],
      "min": [
        0.034570001065731049,
        0.0019499999471008778
      ],
      "type": "VEC2"
    },
    {
      "bufferView": 0,
      "componentType": 5125,
      "count": 351333,
      "max": [
        65531
      ],
      "min": [
        0
      ],
      "type": "SCALAR"
    },
    {
      "bufferView": 2,
      "byteOffset": 1572768,
      "componentType": 5126,
      "count": 35770,
      "max": [
        79.441352844238281,
        47.008140563964844,
        134.37803649902344
      ],
      "min": [
        -80.153152465820312,
        -63.316020965576172,
        -105.43665313720703
      ],
      "type": "VEC3"
    },
    {
      "bufferView": 2,
      "byteOffset": 2002008,
      "componentType": 5126,
      "count": 35770,
      "max": [
        0.99999183416366577,
        0.97231507301330566,
        0.99735242128372192
      ],
      "min": [
        -0.99999910593032837,
        -0.9998442530632019,
        -0.96799629926681519
      ],
      "type": "VEC3"
    },
    {
      "bufferView": 3,
      "byteOffset": 1048512,
      "componentType": 5126,
      "count": 35770,
      "max": [
        0.71170210838317871,
        0.99975597858428955,
        0.99684834480285645,
        1
      ],
      "min": [
        -0.99981057643890381,
        -0.99999850988388062,
        -0.94552195072174072,
        -1
      ],
      "type": "VEC4"
    },
    {
      "bufferView": 1,
      "byteOffset": 524256,
      "componentType": 5126,
      "count": 35770,
      "max": [
        0.99721997976303101,
        0.99804002046585083
      ],
      "min": [
        0.034120000898838043,
        0.015189999714493752
      ],
      "type": "VEC2"
    },
    {
      "bufferView": 0,
      "byteOffset": 1405332,
      "componentType": 5125,
      "count": 152784,
      "max": [
        35769
      ],
      "min": [
        0
      ],
      "type": "SCALAR"
    }
  ],
  "asset": {
    "extras": {
      "author": "Dan Perreault (https://sketchfab.com/neometrixtech)",
      "license": "CC-BY-4.0 (http://creativecommons.org/licenses/by/4.0/)",
      "source": "https://sketchfab.com/3d-models/human-face-scanning-2369a85b63844dccb27429093f9228e2",
      "title": "Human Face Scanning"
    },
    "generator": "Sketchfab-6.34.0",
    "version": "2.0"
  },
  "bufferViews": [
    {
      "buffer": 0,
      "byteLength": 2016468,
      "byteOffset": 0,
      "name": "floatBufferViews",
      "target": 34963
    },
    {
      "buffer": 0,
      "byteLength": 810416,
      "byteOffset": 2016468,
      "byteStride": 8,
      "name": "floatBufferViews",
      "target": 34962
    },
    {
      "buffer": 0,
      "byteLength": 2431248,
      "byteOffset": 2826884,
      "byteStride": 12,
      "name": "floatBufferViews",
      "target": 34962
    },
    {
      "buffer": 0,
      "byteLength": 1620832,
      "byteOffset": 5258132,
      "byteStride": 16,
      "name": "floatBufferViews",
      "target": 34962
    }
  ],
  "buffers": [
    {
      "byteLength": 6878964,
      "uri": "scene.bin"
    }
  ],
  "materials": [
    {
      "doubleSided": true,
      "emissiveFactor": [
        0,
        0,
        0
      ],
      "name": "defaultMat",
      "pbrMetallicRoughness": {
        "baseColorFactor": [
          1,
          1,
          1,
          1
        ],
        "metallicFactor": 0,
        "roughnessFactor": 0.59999999999999998
      }
    }
  ],
  "meshes": [
    {
      "primitives": [
        {
          "attributes": {
            "NORMAL": 1,
            "POSITION": 0,
            "TANGENT": 2,
            "TEXCOORD_0": 3
          },
          "indices": 4,
          "material": 0,
          "mode": 4
        }
      ]
    },
    {
      "primitives": [
        {
          "attributes": {
            "NORMAL": 6,
            "POSITION": 5,
            "TANGENT": 7,
            "TEXCOORD_0": 8
          },
          "indices": 9,
          "material": 0,
          "mode": 4
        }
      ]
    }
  ],
  "nodes": [
    {
      "children": [
        1
      ],
      "name": "RootNode (gltf orientation matrix)",
      "rotation": [
        -0.70710678118654746,
        -0,
        -0,
        0.70710678118654757
      ]
    },
    {
      "children": [
        2
      ],
      "name": "RootNode (model correction matrix)"
    },
    {
      "children": [
        3,
        4
      ],
      "name": "Human Body Scanning Face Go!SCAN20.OBJ.cleaner.materialmerger.gles"
    },
    {
      "mesh": 0,
      "name": ""
    },
    {
      "mesh": 1,
      "name": ""
    }
  ],
  "scene": 0,
  "scenes": [
    {
      "name": "OSG_Scene",
      "nodes": [
        0
      ]
    }
  ]
}

