<?xml version="1.0" encoding="UTF-8"?><svg id="Layer_1" xmlns="http://www.w3.org/2000/svg" viewBox="0 0 26.88 26.88"><defs><style>.cls-1{fill:#fff;}</style></defs><path class="cls-1" d="M13.44,26.44C6.27,26.44,.44,20.61,.44,13.44S6.27,.44,13.44,.44s13,5.83,13,13-5.83,13-13,13Zm0-22c-4.96,0-9,4.04-9,9s4.04,9,9,9,9-4.04,9-9S18.4,4.44,13.44,4.44Zm-2,16v-6h-2v-4h2.97c-.72-.37-1.22-1.13-1.22-2,0-1.24,1.01-2.25,2.25-2.25s2.25,1.01,2.25,2.25c0,.87-.5,1.63-1.22,2h.97v10h-4Z"/><path d="M14.69,8.44c0,.69-.56,1.25-1.25,1.25s-1.25-.56-1.25-1.25,.56-1.25,1.25-1.25,1.25,.56,1.25,1.25Zm10.75,5c0,6.63-5.37,12-12,12S1.44,20.07,1.44,13.44,6.81,1.44,13.44,1.44s12,5.37,12,12Zm-2,0c0-5.51-4.49-10-10-10S3.44,7.92,3.44,13.44s4.49,10,10,10,10-4.49,10-10Zm-13-2v2h2v6h2V11.44h-4Z"/></svg>